[img]http://www.downeu.net/uploads/posts/2011-03-26/331227-0.jpg[/img]

[b]Plot[/b]

[b][color=black]A malfunctioning time machine at a ski resort takes a man back to 1986 with his two friends and nephew, where they must relive a fateful night and not change anything to make sure the nephew is born. [/color][/b]

[img]http://www.newyorkpersonalinjuryattorneyblog.com/NYPIAB/wp-content/uploads/2011/10/imdb_logo.jpg[/img]
                                  [url="http://www.imdb.com/title/tt1231587/"]IMDB[/url]

[b][color=black]Hot Tub Time Machine [2010] [Unrated Edition] DvdRip x264 AAC -Sebastian[Ub3r]

Format                           : MPEG-4
Format profile                   : Base Media / Version 2
Codec ID                         : mp42
File size                        : 371 MiB
Duration                         : 1h 40mn
Overall bit rate                 : 515 Kbps
Encoded date                     : UTC 2012-10-10 12:37:30
Tagged date                      : UTC 2012-10-10 12:57:56

Video
ID                               : 1
Format                           : AVC
Format/Info                      : Advanced Video Codec
Format profile                   : Main@L2.1
Format settings, CABAC           : Yes
Format settings, ReFrames        : 4 frames
Codec ID                         : avc1
Codec ID/Info                    : Advanced Video Coding
Duration                         : 1h 40mn
Bit rate mode                    : Variable
Bit rate                         : 400 Kbps
Width                            : 616 pixels
Height                           : 320 pixels
Display aspect ratio             : 1.925
Frame rate mode                  : Variable
Frame rate                       : 23.976 fps
Minimum frame rate               : 23.974 fps
Maximum frame rate               : 23.981 fps
Color space                      : YUV
Chroma subsampling               : 4:2:0
Bit depth                        : 8 bits
Scan type                        : Progressive
Bits/(Pixel*Frame)               : 0.085
Stream size                      : 286 MiB (77%)
Writing library                  : x264 core 120
Encoded date                     : UTC 2012-10-10 12:37:30
Tagged date                      : UTC 2012-10-10 12:57:51

Audio
ID                               : 2
Format                           : AAC
Format/Info                      : Advanced Audio Codec
Format profile                   : LC
Codec ID                         : 40
Duration                         : 1h 40mn
Bit rate mode                    : Variable
Bit rate                         : 112 Kbps
Maximum bit rate                 : 177 Kbps
Channel(s)                       : 2 channels
Channel positions                : Front: L R
Sampling rate                    : 48.0 KHz
Compression mode                 : Lossy
Stream size                      : 80.6 MiB (22%)
Encoded date                     : UTC 2012-10-10 12:37:30
Tagged date                      : UTC 2012-10-10 12:57:50

Source: Hot Tub Time Machine[2010][Unrated Edition]DvDrip[Eng]-FXG (Thanks)

Screenshots[/color][/b]

[img]http://imageshack.us/a/img35/733/hottubtimemachine2010un.jpg[/img]

[img]http://kastatic.com/i2/users/133df62bbf28e62494bb17fe11078f1a.gif[/img][img]http://kastatic.com/i2/users/133df62bbf28e62494bb17fe11078f1a.gif[/img]